<svg preserveAspectRatio="none" width="100%" height="100%" overflow="visible" style="display: block;" viewBox="0 0 20 20" fill="none" xmlns="http://www.w3.org/2000/svg">
<g id="si:add-fill">
<path id="Vector" d="M10.8333 5C10.8333 4.77899 10.7455 4.56702 10.5893 4.41074C10.433 4.25446 10.221 4.16667 10 4.16667C9.77899 4.16667 9.56702 4.25446 9.41074 4.41074C9.25446 4.56702 9.16667 4.77899 9.16667 5V9.16667H5C4.77899 9.16667 4.56702 9.25446 4.41074 9.41074C4.25446 9.56702 4.16667 9.77899 4.16667 10C4.16667 10.221 4.25446 10.433 4.41074 10.5893C4.56702 10.7455 4.77899 10.8333 5 10.8333H9.16667V15C9.16667 15.221 9.25446 15.433 9.41074 15.5893C9.56702 15.7455 9.77899 15.8333 10 15.8333C10.221 15.8333 10.433 15.7455 10.5893 15.5893C10.7455 15.433 10.8333 15.221 10.8333 15V10.8333H15C15.221 10.8333 15.433 10.7455 15.5893 10.5893C15.7455 10.433 15.8333 10.221 15.8333 10C15.8333 9.77899 15.7455 9.56702 15.5893 9.41074C15.433 9.25446 15.221 9.16667 15 9.16667H10.8333V5Z" fill="var(--fill-0, white)"/>
</g>
</svg>
