<svg preserveAspectRatio="none" width="100%" height="100%" overflow="visible" style="display: block;" viewBox="0 0 20 20" fill="none" xmlns="http://www.w3.org/2000/svg">
<g id="ic:outline-date-range">
<path id="Vector" d="M5.83333 9.16667H7.5V10.8333H5.83333V9.16667ZM17.5 5V16.6667C17.5 17.5833 16.75 18.3333 15.8333 18.3333H4.16667C3.72464 18.3333 3.30072 18.1577 2.98816 17.8452C2.67559 17.5326 2.5 17.1087 2.5 16.6667L2.50833 5C2.50833 4.08333 3.24167 3.33333 4.16667 3.33333H5V1.66667H6.66667V3.33333H13.3333V1.66667H15V3.33333H15.8333C16.75 3.33333 17.5 4.08333 17.5 5ZM4.16667 6.66667H15.8333V5H4.16667V6.66667ZM15.8333 16.6667V8.33333H4.16667V16.6667H15.8333ZM12.5 10.8333H14.1667V9.16667H12.5V10.8333ZM9.16667 10.8333H10.8333V9.16667H9.16667V10.8333Z" fill="var(--fill-0, #717171)"/>
</g>
</svg>
