<svg preserveAspectRatio="none" width="100%" height="100%" overflow="visible" style="display: block;" viewBox="0 0 20 20" fill="none" xmlns="http://www.w3.org/2000/svg">
<g id="material-symbols-light:bar-chart-rounded">
<path id="Vector" d="M14.0067 15.8333C13.8156 15.8333 13.6556 15.7689 13.5267 15.64C13.3978 15.5111 13.3333 15.3511 13.3333 15.16V12.5C13.3333 12.3094 13.3978 12.1497 13.5267 12.0208C13.6556 11.8919 13.8156 11.8272 14.0067 11.8267H15.16C15.3511 11.8267 15.5111 11.8911 15.64 12.02C15.7689 12.1489 15.8333 12.3089 15.8333 12.5V15.16C15.8333 15.3511 15.7689 15.5111 15.64 15.64C15.5111 15.7689 15.3511 15.8333 15.16 15.8333H14.0067ZM9.42333 15.8333C9.23222 15.8333 9.07222 15.7689 8.94333 15.64C8.81444 15.5111 8.75 15.3511 8.75 15.16V4.84C8.75 4.64944 8.81444 4.48944 8.94333 4.36C9.07222 4.23056 9.23222 4.16611 9.42333 4.16667H10.5767C10.7678 4.16667 10.9278 4.23111 11.0567 4.36C11.1856 4.48889 11.25 4.64889 11.25 4.84V15.16C11.25 15.3511 11.1856 15.5111 11.0567 15.64C10.9278 15.7689 10.7678 15.8333 10.5767 15.8333H9.42333ZM4.84 15.8333C4.64889 15.8333 4.48889 15.7689 4.36 15.64C4.23111 15.5111 4.16667 15.3511 4.16667 15.16V8.85417C4.16667 8.65528 4.23111 8.49222 4.36 8.365C4.48889 8.23778 4.64889 8.17389 4.84 8.17333H5.99333C6.18389 8.17333 6.34389 8.23778 6.47333 8.36667C6.60278 8.49556 6.66722 8.65556 6.66667 8.84667V15.1525C6.66667 15.3514 6.60222 15.5144 6.47333 15.6417C6.34444 15.7689 6.18444 15.8328 5.99333 15.8333H4.84Z" fill="var(--fill-0, #004AAD)"/>
</g>
</svg>
