<svg preserveAspectRatio="none" width="100%" height="100%" overflow="visible" style="display: block;" viewBox="0 0 42.625 36.375" fill="none" xmlns="http://www.w3.org/2000/svg">
<path id="Vector" d="M38.5 8.8125L37.1979 30.9625C37.1278 32.1564 36.6039 33.2782 35.7337 34.0985C34.8634 34.9188 33.7126 35.3755 32.5167 35.375H10.1083C8.91242 35.3755 7.76155 34.9188 6.89131 34.0985C6.02106 33.2782 5.49724 32.1564 5.42708 30.9625L4.125 8.8125M17.1458 16.625H25.4792M3.34375 8.8125H39.2812C40.575 8.8125 41.625 7.7625 41.625 6.46875V3.34375C41.625 2.05 40.575 1 39.2812 1H3.34375C2.05 1 1 2.05 1 3.34375V6.46875C1 7.7625 2.05 8.8125 3.34375 8.8125Z" stroke="var(--stroke-0, #71717A)" stroke-width="2" stroke-linecap="round" stroke-linejoin="round"/>
</svg>
