<svg preserveAspectRatio="none" width="100%" height="100%" overflow="visible" style="display: block;" viewBox="0 0 40 40" fill="none" xmlns="http://www.w3.org/2000/svg">
<path id="Vector 69" d="M0 13.6681V40C3.03371 40 7.8978 39.3449 10 33.0823C11.0112 30.0697 13.764 28.7866 16.0674 28.7866C16.7416 28.7866 16.0112 28.7851 21.0674 28.7866C30.1016 28.7893 31.6854 21.1436 32.2472 17.4058C28.427 17.3872 19.4384 17.4616 14.9438 17.4616C11.7978 17.4616 10.8188 19.1745 11.0674 18.1869C12.2472 13.5007 16.2172 12.3106 18.0899 12.2734C18.9139 12.292 22.3933 12.318 29.7191 12.2734C37.0449 12.2288 39.4382 5.35564 40 0C32.809 3.99027e-06 21.0674 0.0557906 14.2697 0.055788C7.47191 0.0557853 0.786517 5.35564 0 13.6681Z" fill="var(--fill-0, #004AAD)"/>
</svg>
